<svg xmlns="http://www.w3.org/2000/svg" xmlns:xlink="http://www.w3.org/1999/xlink" width="500" zoomAndPan="magnify" viewBox="0 0 375 374.999991" height="500" preserveAspectRatio="xMidYMid meet" version="1.0"><defs><clipPath id="84b121e1dc"><path d="M 96 52.136719 L 296 52.136719 L 296 288 L 96 288 Z M 96 52.136719 " clip-rule="nonzero"/></clipPath><clipPath id="5d47528a97"><path d="M 26.042969 242 L 349.292969 242 L 349.292969 322.886719 L 26.042969 322.886719 Z M 26.042969 242 " clip-rule="nonzero"/></clipPath><clipPath id="859b9406a7"><path d="M 144 52.136719 L 252 52.136719 L 252 251 L 144 251 Z M 144 52.136719 " clip-rule="nonzero"/></clipPath></defs><g clip-path="url(#84b121e1dc)"><path fill="#28bdd6" d="M 251.3125 52.136719 C 209.675781 111.941406 204.980469 189.984375 239.183594 254.320312 C 259.203125 262.625 278.210938 273.632812 295.6875 287.152344 C 237.0625 223.765625 219.847656 132.496094 251.3125 52.101562 C 167.027344 78.714844 106.253906 152.332031 96.175781 240.050781 C 109.347656 237.445312 122.621094 235.914062 135.824219 235.492188 C 134 156.730469 179.449219 84.511719 251.3125 52.101562 Z M 251.3125 52.136719 " fill-opacity="1" fill-rule="evenodd"/></g><g clip-path="url(#5d47528a97)"><path fill="#d9d9d9" d="M 349.09375 313.082031 C 259.65625 282.203125 164.746094 270.507812 70.484375 278.75 C 55.226562 262.789062 40.488281 250.800781 26.238281 242.851562 C 137.847656 241.0625 248.34375 265.101562 349.09375 313.082031 C 265.949219 298.226562 185.1875 301.515625 106.742188 322.886719 C 97.578125 310.246094 88.613281 298.945312 79.777344 288.910156 C 170.253906 278.554688 261.875 286.761719 349.058594 313.082031 Z M 349.09375 313.082031 " fill-opacity="1" fill-rule="evenodd"/></g><g clip-path="url(#859b9406a7)"><path fill="#28bdd6" d="M 251.3125 52.136719 C 205.632812 108.128906 196.925781 185.652344 229.042969 250.378906 C 217.109375 246.011719 204.847656 242.59375 192.394531 240.117188 C 172.015625 171.320312 195.296875 97.054688 251.3125 52.136719 C 193.992188 95.457031 166.765625 167.867188 181.339844 238.195312 C 169.441406 236.371094 157.375 235.457031 145.28125 235.394531 C 140.617188 158.585938 182.351562 86.433594 251.3125 52.136719 Z M 251.3125 52.136719 " fill-opacity="1" fill-rule="evenodd"/></g></svg>